<svg width="151" height="85" viewBox="0 0 151 85" fill="none" xmlns="http://www.w3.org/2000/svg">
<path d="M11.2519 56.1821V71.1139H2.91664V36.2048H10.9791V49.7389H11.2689C11.8598 48.1253 12.8257 46.8639 14.1666 45.9548C15.5189 45.0457 17.1723 44.5912 19.1269 44.5912C20.9678 44.5912 22.5701 45.0003 23.9337 45.8185C25.2973 46.6253 26.3541 47.7673 27.1041 49.2446C27.8655 50.7219 28.2405 52.4491 28.2291 54.4264V71.1139H19.8939V56.0628C19.9053 54.6082 19.5416 53.4719 18.803 52.6537C18.0644 51.8355 17.0246 51.4264 15.6837 51.4264C14.8087 51.4264 14.036 51.6196 13.3655 52.006C12.7064 52.381 12.1894 52.9207 11.8144 53.6253C11.4507 54.3298 11.2632 55.1821 11.2519 56.1821ZM40.8129 71.5571C39.1425 71.5571 37.6595 71.2787 36.3641 70.7219C35.08 70.1537 34.0629 69.3014 33.3129 68.1651C32.5743 67.0173 32.205 65.5798 32.205 63.8526C32.205 62.398 32.4607 61.1707 32.972 60.1707C33.4834 59.1707 34.1879 58.3582 35.0857 57.7332C35.9834 57.1082 37.0175 56.6366 38.1879 56.3185C39.3584 55.9889 40.6084 55.7673 41.9379 55.6537C43.4266 55.5173 44.6255 55.3753 45.5345 55.2276C46.4436 55.0685 47.1027 54.8469 47.5118 54.5628C47.9323 54.2673 48.1425 53.8526 48.1425 53.3185V53.2332C48.1425 52.3582 47.8414 51.6821 47.2391 51.2048C46.6368 50.7276 45.8243 50.4889 44.8016 50.4889C43.6993 50.4889 42.813 50.7276 42.1425 51.2048C41.472 51.6821 41.0459 52.3412 40.8641 53.1821L33.1766 52.9094C33.4039 51.3185 33.9891 49.898 34.9323 48.648C35.8868 47.3866 37.1936 46.398 38.8527 45.6821C40.5232 44.9548 42.5289 44.5912 44.8698 44.5912C46.5402 44.5912 48.08 44.7901 49.4891 45.1878C50.8982 45.5741 52.1254 46.1423 53.1709 46.8923C54.2164 47.631 55.0232 48.5401 55.5914 49.6196C56.1709 50.6991 56.4607 51.9321 56.4607 53.3185V71.1139H48.6198V67.4662H48.4152C47.9493 68.3526 47.3527 69.1026 46.6255 69.7162C45.9095 70.3298 45.0629 70.7901 44.0857 71.0969C43.1198 71.4037 42.0289 71.5571 40.8129 71.5571ZM43.3868 66.1026C44.2845 66.1026 45.0914 65.9207 45.8073 65.5571C46.5345 65.1935 47.1141 64.6935 47.5459 64.0571C47.9777 63.4094 48.1936 62.6594 48.1936 61.8071V59.3185C47.955 59.4435 47.6652 59.5571 47.3243 59.6594C46.9948 59.7616 46.6311 59.8582 46.2334 59.9491C45.8357 60.0401 45.4266 60.1196 45.0061 60.1878C44.5857 60.256 44.1823 60.3185 43.7959 60.3753C43.0118 60.5003 42.3414 60.6935 41.7845 60.9548C41.2391 61.2162 40.8186 61.5571 40.5232 61.9776C40.2391 62.3866 40.097 62.8753 40.097 63.4435C40.097 64.3071 40.4039 64.9662 41.0175 65.4207C41.6425 65.8753 42.4323 66.1026 43.3868 66.1026ZM61.5573 71.1139V36.2048H69.8925V49.4151H70.0629C70.4039 48.6196 70.8868 47.8526 71.5118 47.1139C72.1482 46.3753 72.955 45.773 73.9323 45.3071C74.9209 44.8298 76.1027 44.5912 77.4777 44.5912C79.2959 44.5912 80.9948 45.0685 82.5743 46.023C84.1652 46.9776 85.4493 48.4491 86.4266 50.4378C87.4039 52.4264 87.8925 54.9605 87.8925 58.0401C87.8925 61.006 87.4209 63.4889 86.4777 65.4889C85.5459 67.4889 84.2845 68.9889 82.6936 69.9889C81.1141 70.9889 79.3584 71.4889 77.4266 71.4889C76.1084 71.4889 74.9664 71.273 74.0004 70.8412C73.0345 70.4094 72.222 69.8412 71.5629 69.1366C70.9152 68.4321 70.4152 67.6764 70.0629 66.8696H69.8073V71.1139H61.5573ZM69.722 58.023C69.722 59.4321 69.9095 60.6594 70.2845 61.7048C70.6709 62.7503 71.222 63.5628 71.9379 64.1423C72.6652 64.7105 73.5345 64.9946 74.5459 64.9946C75.5686 64.9946 76.4379 64.7105 77.1539 64.1423C77.8698 63.5628 78.4095 62.7503 78.7732 61.7048C79.1482 60.6594 79.3357 59.4321 79.3357 58.023C79.3357 56.6139 79.1482 55.3923 78.7732 54.3582C78.4095 53.3241 77.8698 52.523 77.1539 51.9548C76.4493 51.3866 75.58 51.1026 74.5459 51.1026C73.5232 51.1026 72.6539 51.381 71.9379 51.9378C71.222 52.4946 70.6709 53.2901 70.2845 54.3241C69.9095 55.3582 69.722 56.5912 69.722 58.023ZM92.2604 71.1139V44.9321H100.596V71.1139H92.2604ZM96.4365 41.881C95.2661 41.881 94.2604 41.4946 93.4195 40.7219C92.5786 39.9378 92.1581 38.9946 92.1581 37.8923C92.1581 36.8014 92.5786 35.8696 93.4195 35.0969C94.2604 34.3128 95.2661 33.9207 96.4365 33.9207C97.6183 33.9207 98.624 34.3128 99.4536 35.0969C100.294 35.8696 100.715 36.8014 100.715 37.8923C100.715 38.9946 100.294 39.9378 99.4536 40.7219C98.624 41.4946 97.6183 41.881 96.4365 41.881ZM120.679 44.9321V51.0685H104.162V44.9321H120.679ZM107.623 38.6594H115.958V62.881C115.958 63.3923 116.037 63.8071 116.196 64.1253C116.367 64.4321 116.611 64.6537 116.929 64.7901C117.248 64.9151 117.628 64.9776 118.071 64.9776C118.39 64.9776 118.725 64.9491 119.077 64.8923C119.441 64.8241 119.714 64.7673 119.895 64.7219L121.157 70.7389C120.759 70.8526 120.196 70.9946 119.469 71.1651C118.753 71.3355 117.895 71.4435 116.895 71.4889C114.941 71.5798 113.265 71.3526 111.867 70.8071C110.481 70.2503 109.418 69.3866 108.679 68.2162C107.952 67.0457 107.6 65.5741 107.623 63.8014V38.6594ZM147.462 52.9264L139.809 53.131C139.729 52.5855 139.513 52.1026 139.161 51.6821C138.809 51.2503 138.348 50.9151 137.78 50.6764C137.223 50.4264 136.576 50.3014 135.837 50.3014C134.871 50.3014 134.047 50.4946 133.366 50.881C132.695 51.2673 132.366 51.7901 132.377 52.4491C132.366 52.9605 132.57 53.4037 132.991 53.7787C133.422 54.1537 134.189 54.4548 135.292 54.6821L140.337 55.6366C142.951 56.1366 144.894 56.9662 146.167 58.1253C147.451 59.2844 148.098 60.8185 148.11 62.7276C148.098 64.523 147.564 66.0855 146.508 67.4151C145.462 68.7446 144.03 69.7787 142.212 70.5173C140.394 71.2446 138.314 71.6082 135.973 71.6082C132.235 71.6082 129.286 70.8412 127.127 69.3071C124.979 67.7616 123.752 65.6935 123.445 63.1026L131.678 62.898C131.86 63.8526 132.331 64.5798 133.093 65.0798C133.854 65.5798 134.826 65.8298 136.008 65.8298C137.076 65.8298 137.945 65.631 138.616 65.2332C139.286 64.8355 139.627 64.3071 139.638 63.648C139.627 63.0571 139.366 62.5855 138.854 62.2332C138.343 61.8696 137.542 61.5855 136.451 61.381L131.883 60.5116C129.258 60.0344 127.303 59.1537 126.019 57.8696C124.735 56.5741 124.098 54.9264 124.11 52.9264C124.098 51.1764 124.564 49.6821 125.508 48.4435C126.451 47.1935 127.792 46.2389 129.53 45.5798C131.269 44.9207 133.32 44.5912 135.684 44.5912C139.229 44.5912 142.025 45.3355 144.07 46.8241C146.116 48.3014 147.246 50.3355 147.462 52.9264Z" fill="white"/>
<rect x="0.774597" y="0.613922" width="15" height="15" rx="3.5" fill="#18181B" stroke="#27272A"/>
<rect x="20.7746" y="0.613922" width="15" height="15" rx="3.5" fill="#4C1D95" stroke="#6D28D9"/>
<rect x="40.7746" y="0.613922" width="15" height="15" rx="3.5" fill="#5B21B6" stroke="#7C3AED"/>
<rect x="60.7746" y="0.613922" width="15" height="15" rx="3.5" fill="#6D28D9" stroke="#8B5CF6"/>
<rect x="80.7746" y="0.613922" width="15" height="15" rx="3.5" fill="#7C3AED" stroke="#A78BFA"/>
<rect x="100.775" y="0.613922" width="15" height="15" rx="3.5" fill="#8B5CF6" stroke="#C4B5FD"/>
</svg>
